<svg version="1.1" width="2000" height="348" viewBox="0 0 2000 348"><g transform="matrix(1,0,0,1,-1.2121212121212466,-0.02371698769226782)"><svg viewBox="0 0 396 69" data-background-color="#dbaaff" preserveAspectRatio="xMidYMid meet" height="348" width="2000" xmlns="http://www.w3.org/2000/svg" xmlns:xlink="http://www.w3.org/1999/xlink"><g id="tight-bounds" transform="matrix(1,0,0,1,0.2400000000000091,0.0047025061803651624)"><svg viewBox="0 0 395.52 68.9905949876393" height="68.9905949876393" width="395.52"><g><svg viewBox="0 0 493.03371259619894 85.99992207973432" height="68.9905949876393" width="395.52"><g><rect width="5.611839164305374" height="74.67431729065208" x="77.21119499130359" y="5.662802394541117" fill="#27005d" opacity="1" stroke-width="0" stroke="transparent" fill-opacity="1" class="rect-qz-0" data-fill-palette-color="primary" rx="1%" id="qz-0" data-palette-color="#27005d"></rect></g><g transform="matrix(1,0,0,1,97.51371259619896,11.885662168762124)"><svg viewBox="0 0 395.52 62.22859774221007" height="62.22859774221007" width="395.52"><g id="textblocktransform"><svg viewBox="0 0 395.52 62.22859774221007" height="62.22859774221007" width="395.52" id="textblock"><g><svg viewBox="0 0 395.52 62.22859774221007" height="62.22859774221007" width="395.52"><g transform="matrix(1,0,0,1,0,0)"><svg width="395.52" viewBox="1.959375 -37.8 325.710625 51.25" height="62.22859774221007" data-palette-color="#27005d"><path d="M11.1-17L11.1-2.45 15.85-1.5Q16-0.55 15.6 0.25L15.6 0.25Q14.7 0.2 13.35 0.15 12 0.1 10.65 0.05 9.3 0 8.35 0L8.35 0Q6.95 0 5.35 0.08 3.75 0.15 2.35 0.25L2.35 0.25Q2.2-0.7 2.45-1.5L2.45-1.5Q3.3-1.7 4.1-1.85 4.9-2 5.85-2.5L5.85-2.5 5.85-32.5 2-33.5Q1.85-34.45 2.25-35.25L2.25-35.25Q3.6-35.2 5.28-35.1 6.95-35 8.35-35L8.35-35 27.1-35Q27.15-34.5 27.15-34.02 27.15-33.55 27.15-33.05L27.15-33.05Q27.15-31.3 26.98-29.6 26.8-27.9 26.55-26.25L26.55-26.25Q26.05-26.05 25.7-26.05 25.35-26.05 24.75-26.1L24.75-26.1 23.5-32.75 11.1-32.75 11.1-19.75 18.95-19.75 19.9-24.15Q20.35-24.3 20.9-24.28 21.45-24.25 21.9-23.9L21.9-23.9Q21.8-22.8 21.75-21.4 21.7-20 21.7-18.55L21.7-18.55Q21.7-16.95 21.75-15.4 21.8-13.85 21.9-12.65L21.9-12.65Q21.45-12.45 20.9-12.45 20.35-12.45 19.9-12.55L19.9-12.55 18.95-17 11.1-17ZM38.25-24.95L38.25-2.5 41.6-1.5Q41.75-0.55 41.35 0.25L41.35 0.25Q40 0.15 38.57 0.08 37.15 0 35.75 0L35.75 0Q34.35 0 32.7 0.08 31.05 0.15 29.65 0.25L29.65 0.25Q29.5-0.7 29.75-1.5L29.75-1.5Q30.7-1.75 31.62-1.95 32.55-2.15 33.25-2.5L33.25-2.5 33.25-22 29.1-22.4Q28.95-23.4 29.35-24.15L29.35-24.15Q31.15-24.4 32.97-24.75 34.8-25.1 36.35-25.5L36.35-25.5Q36.85-25.45 37.3-25.33 37.75-25.2 38.25-24.95L38.25-24.95ZM34.9-30.05L34.9-30.05Q34.05-30.05 33.35-30.6 32.65-31.15 32.25-31.95 31.85-32.75 31.85-33.45L31.85-33.45Q31.85-34.1 32.4-34.77 32.95-35.45 33.77-35.93 34.6-36.4 35.4-36.4L35.4-36.4Q36.3-36.4 37-35.83 37.7-35.25 38.07-34.48 38.45-33.7 38.45-33L38.45-33Q38.45-32.35 37.92-31.65 37.4-30.95 36.57-30.5 35.75-30.05 34.9-30.05ZM52.3-25.05L52.15-21.65 52.2-21.6Q54.59-24 57.15-24.9 59.7-25.8 61.59-25.8L61.59-25.8Q64.84-25.8 66.72-23.95 68.59-22.1 68.59-18.55L68.59-18.55 68.65-2.5 72.15-1.5Q72.3-0.55 71.9 0.25L71.9 0.25Q70.55 0.15 69.05 0.08 67.55 0 66.15 0L66.15 0Q64.75 0 63.2 0.08 61.65 0.15 60.25 0.25L60.25 0.25Q60.09-0.7 60.34-1.5L60.34-1.5Q61.34-1.7 62.12-1.95 62.9-2.2 63.65-2.5L63.65-2.5 63.65-16.3Q63.65-19.7 62.59-21 61.55-22.3 59.25-22.3L59.25-22.3Q57.4-22.3 55.65-21.58 53.9-20.85 52.55-19.3L52.55-19.3 52.55-2.5 55.9-1.5Q56.05-0.55 55.65 0.25L55.65 0.25Q54.3 0.15 52.87 0.08 51.45 0 50.05 0L50.05 0Q48.65 0 47 0.08 45.34 0.15 43.95 0.25L43.95 0.25Q43.8-0.7 44.05-1.5L44.05-1.5Q44.95-1.75 45.84-1.98 46.75-2.2 47.55-2.5L47.55-2.5 47.55-22 43.4-22.4Q43.25-23.4 43.65-24.15L43.65-24.15Q45.5-24.45 47.25-24.8 49-25.15 50.59-25.5L50.59-25.5Q51.45-25.45 52.3-25.05L52.3-25.05ZM84.89 1L84.89 1Q82.09 1 79.77-0.68 77.44-2.35 76.07-5.3 74.69-8.25 74.69-12.05L74.69-12.05Q74.69-16.4 76.24-19.5 77.79-22.6 80.62-24.28 83.44-25.95 87.29-25.95L87.29-25.95Q88.69-25.95 90.12-25.6 91.54-25.25 92.64-24.7L92.64-24.7 92.79-24.7 92.79-34.3 88.64-34.7Q88.49-35.7 88.89-36.45L88.89-36.45Q92.49-37 95.64-37.8L95.64-37.8Q96.59-37.75 97.64-37.25L97.64-37.25 97.64-2.4Q98.09-2 99.14-1.75 100.19-1.5 101.14-1.4L101.14-1.4Q101.29-0.45 100.89 0.35L100.89 0.35Q100.09 0.5 98.97 0.6 97.84 0.7 96.69 0.7L96.69 0.7Q95.04 0.7 93.84 0.4L93.84 0.4Q93.44-0.25 93.22-0.9 92.99-1.55 92.89-2.25L92.89-2.25 92.64-2.25Q90.54-0.45 88.77 0.28 86.99 1 84.89 1ZM86.94-1.9L86.94-1.9Q88.89-1.9 90.29-2.73 91.69-3.55 92.64-4.55L92.64-4.55 92.64-21.95Q91.69-22.8 90.42-23.18 89.14-23.55 87.69-23.55L87.69-23.55Q83.79-23.55 81.89-20.55 79.99-17.55 79.99-12.5L79.99-12.5Q79.99-7.35 81.77-4.63 83.54-1.9 86.94-1.9ZM126.69-13.25L134.84-34 134.84-35 137.84-35Q139.29-35 141.29-35.1 143.29-35.2 144.69-35.25L144.69-35.25Q144.84-34.3 144.59-33.5L144.59-33.5Q143.49-33.3 142.49-33.1 141.49-32.9 140.59-32.5L140.59-32.5 143.09-2.5 146.94-1.5Q147.09-0.55 146.69 0.25L146.69 0.25Q145.34 0.15 143.67 0.08 141.99 0 140.59 0L140.59 0Q139.19 0 137.17 0.08 135.14 0.15 133.74 0.25L133.74 0.25Q133.59-0.7 133.84-1.5L133.84-1.5Q134.94-1.7 135.99-1.85 137.04-2 137.84-2.5L137.84-2.5 135.74-24.4Q135.69-25.1 135.67-25.8 135.64-26.5 135.64-27.2L135.64-27.2Q135.64-27.75 135.64-28.35 135.64-28.95 135.69-29.5L135.69-29.5 135.54-29.5Q135.19-28.25 134.81-26.98 134.44-25.7 133.94-24.4L133.94-24.4 124.89-1.55Q123.94-1 123.09-1.05L123.09-1.05 113.24-24.4Q112.79-25.55 112.39-26.83 111.99-28.1 111.59-29.5L111.59-29.5 111.44-29.5 111.29-24.35 110.04-2.45 113.89-1.45Q114.04-0.5 113.64 0.3L113.64 0.3Q112.29 0.2 111.04 0.1 109.79 0 108.39 0L108.39 0Q106.99 0 105.72 0.08 104.44 0.15 103.04 0.25L103.04 0.25Q102.89-0.7 103.14-1.5L103.14-1.5Q104.14-1.65 105.12-1.9 106.09-2.15 107.04-2.5L107.04-2.5 109.04-32.5 105.19-33.5Q105.04-34.45 105.44-35.25L105.44-35.25Q106.79-35.2 108.47-35.1 110.14-35 111.54-35L111.54-35 114.79-35 114.79-34 122.94-13.25Q123.59-11.7 123.99-10.3 124.39-8.9 124.74-7.35L124.74-7.35 124.84-7.35Q125.24-8.95 125.69-10.38 126.14-11.8 126.69-13.25L126.69-13.25ZM153.44 13.45L153.44 13.45Q152.59 12.15 151.71 10.45 150.84 8.75 150.59 7.05L150.59 7.05Q150.89 6.8 151.46 6.58 152.04 6.35 152.49 6.35L152.49 6.35 155.69 10.1Q157.04 8.8 158.46 6.18 159.89 3.55 161.14 0.2L161.14 0.2 152.04-22.5 148.19-23.5Q148.04-24.45 148.44-25.25L148.44-25.25Q149.79-25.2 151.36-25.1 152.94-25 154.34-25L154.34-25Q155.79-25 157.46-25.1 159.14-25.2 160.54-25.25L160.54-25.25Q160.69-24.3 160.44-23.5L160.44-23.5Q159.54-23.3 158.66-23.1 157.79-22.9 156.99-22.5L156.99-22.5 161.14-12.45Q161.39-11.85 161.89-10.63 162.39-9.4 162.89-7.85 163.39-6.3 163.69-4.7L163.69-4.7 163.84-4.7Q164.14-5.85 164.49-7.38 164.84-8.9 165.79-11.35L165.79-11.35 170.04-22.5 166.59-23.5Q166.44-24.45 166.84-25.25L166.84-25.25Q168.19-25.2 169.26-25.1 170.34-25 171.74-25L171.74-25Q173.19-25 174.19-25.1 175.19-25.2 176.59-25.25L176.59-25.25Q176.74-24.3 176.49-23.5L176.49-23.5Q175.59-23.3 174.66-23.1 173.74-22.9 173.04-22.5L173.04-22.5 163.24 2.35Q161.94 5.65 160.34 8.15 158.74 10.65 156.99 12.05 155.24 13.45 153.44 13.45ZM190.34-13.95L190.34-13.95Q189.69-13.95 188.99-14 188.29-14.05 187.64-14.1L187.64-14.1 187.64-2.5 192.49-1.5Q192.64-0.55 192.24 0.25L192.24 0.25Q191.34 0.2 190.01 0.15 188.69 0.1 187.39 0.05 186.09 0 185.14 0L185.14 0Q183.74 0 181.71 0.08 179.69 0.15 178.29 0.25L178.29 0.25Q178.14-0.7 178.39-1.5L178.39-1.5Q179.49-1.65 180.49-1.85 181.49-2.05 182.39-2.5L182.39-2.5 182.39-32.5 178.54-33.5Q178.39-34.45 178.79-35.25L178.79-35.25Q180.14-35.2 181.81-35.1 183.49-35 184.89-35L184.89-35Q187.09-35 188.74-35.23 190.39-35.45 191.64-35.45L191.64-35.45Q197.89-35.45 201.39-32.7 204.89-29.95 204.89-25.1L204.89-25.1Q204.89-22.05 203.64-19.93 202.39-17.8 200.29-16.48 198.19-15.15 195.59-14.55 192.99-13.95 190.34-13.95ZM191.29-33.2L191.29-33.2Q189.54-33.2 187.64-32.75L187.64-32.75 187.64-16.55Q189.24-16.25 190.74-16.25L190.74-16.25Q193.19-16.25 195.19-17.13 197.19-18 198.36-19.88 199.54-21.75 199.54-24.8L199.54-24.8Q199.54-27.45 198.44-29.33 197.34-31.2 195.46-32.2 193.59-33.2 191.29-33.2ZM215.23-37.25L215.23-22.25 215.48-22.25Q217.73-24.3 219.86-25.15 221.98-26 223.68-26L223.68-26Q227.78-26 229.66-23.85 231.53-21.7 231.53-18.2L231.53-18.2 231.53-2.5 235.13-1.5Q235.28-0.55 234.88 0.25L234.88 0.25Q233.53 0.15 231.98 0.08 230.43 0 229.03 0L229.03 0Q227.63 0 225.98 0.08 224.33 0.15 222.93 0.25L222.93 0.25Q222.78-0.7 223.03-1.5L223.03-1.5Q223.93-1.7 224.83-1.93 225.73-2.15 226.53-2.5L226.53-2.5 226.53-17.45Q226.53-19.55 225.88-20.65 225.23-21.75 224.13-22.13 223.03-22.5 221.68-22.5L221.68-22.5Q220.08-22.5 218.36-21.7 216.63-20.9 215.48-19.6L215.48-19.6 215.48-2.5 218.83-1.5Q218.98-0.55 218.58 0.25L218.58 0.25Q217.23 0.15 215.81 0.08 214.38 0 212.98 0L212.98 0Q211.58 0 209.93 0.08 208.28 0.15 206.88 0.25L206.88 0.25Q206.73-0.7 206.98-1.5L206.98-1.5Q207.93-1.75 208.86-1.95 209.78-2.15 210.48-2.5L210.48-2.5 210.48-34.3 206.33-34.7Q206.18-35.7 206.58-36.45L206.58-36.45Q210.18-37 213.33-37.8L213.33-37.8Q213.83-37.75 214.28-37.63 214.73-37.5 215.23-37.25L215.23-37.25ZM241.48 13.45L241.48 13.45Q240.63 12.15 239.76 10.45 238.88 8.75 238.63 7.05L238.63 7.05Q238.93 6.8 239.51 6.58 240.08 6.35 240.53 6.35L240.53 6.35 243.73 10.1Q245.08 8.8 246.51 6.18 247.93 3.55 249.18 0.2L249.18 0.2 240.08-22.5 236.23-23.5Q236.08-24.45 236.48-25.25L236.48-25.25Q237.83-25.2 239.41-25.1 240.98-25 242.38-25L242.38-25Q243.83-25 245.51-25.1 247.18-25.2 248.58-25.25L248.58-25.25Q248.73-24.3 248.48-23.5L248.48-23.5Q247.58-23.3 246.71-23.1 245.83-22.9 245.03-22.5L245.03-22.5 249.18-12.45Q249.43-11.85 249.93-10.63 250.43-9.4 250.93-7.85 251.43-6.3 251.73-4.7L251.73-4.7 251.88-4.7Q252.18-5.85 252.53-7.38 252.88-8.9 253.83-11.35L253.83-11.35 258.08-22.5 254.63-23.5Q254.48-24.45 254.88-25.25L254.88-25.25Q256.23-25.2 257.31-25.1 258.38-25 259.78-25L259.78-25Q261.23-25 262.23-25.1 263.23-25.2 264.63-25.25L264.63-25.25Q264.78-24.3 264.53-23.5L264.53-23.5Q263.63-23.3 262.71-23.1 261.78-22.9 261.08-22.5L261.08-22.5 251.28 2.35Q249.98 5.65 248.38 8.15 246.78 10.65 245.03 12.05 243.28 13.45 241.48 13.45ZM269.53-7.5L270.03-2.2Q271.08-1.7 272.15-1.5 273.23-1.3 274.58-1.3L274.58-1.3Q276.63-1.3 278.23-2.2 279.83-3.1 279.83-5.1L279.83-5.1Q279.83-6.15 279.25-7.05 278.68-7.95 277.25-8.9 275.83-9.85 273.18-11.05L273.18-11.05Q270.28-12.4 268.68-14.18 267.08-15.95 267.08-19.1L267.08-19.1Q267.08-21.65 268.35-23.13 269.63-24.6 271.65-25.25 273.68-25.9 275.93-25.9L275.93-25.9Q277.88-25.9 279.8-25.53 281.73-25.15 283.23-24.5L283.23-24.5Q283.23-24.25 283.25-23.95 283.28-23.65 283.28-23.4L283.28-23.4Q283.28-20.35 282.33-17.65L282.33-17.65Q282.13-17.6 281.95-17.57 281.78-17.55 281.58-17.55L281.58-17.55Q280.83-17.55 280.08-17.85L280.08-17.85 279.28-23.25Q278.63-23.45 277.78-23.58 276.93-23.7 276.08-23.7L276.08-23.7Q274.93-23.7 273.8-23.38 272.68-23.05 271.95-22.28 271.23-21.5 271.23-20.1L271.23-20.1Q271.23-19.15 271.65-18.3 272.08-17.45 273.35-16.53 274.63-15.6 277.18-14.35L277.18-14.35Q281.18-12.45 282.8-10.68 284.43-8.9 284.43-6.25L284.43-6.25Q284.43-3.7 283.08-2.1 281.73-0.5 279.55 0.25 277.38 1 274.93 1L274.93 1Q272.58 1 270.55 0.63 268.53 0.25 266.48-1L266.48-1 266.48-1.85Q266.48-3.2 266.65-4.63 266.83-6.05 267.38-7.7L267.38-7.7Q267.68-7.75 267.88-7.75L267.88-7.75Q268.78-7.75 269.53-7.5L269.53-7.5ZM296.38-24.95L296.38-2.5 299.73-1.5Q299.88-0.55 299.48 0.25L299.48 0.25Q298.13 0.15 296.7 0.08 295.28 0 293.88 0L293.88 0Q292.48 0 290.83 0.08 289.18 0.15 287.78 0.25L287.78 0.25Q287.63-0.7 287.88-1.5L287.88-1.5Q288.83-1.75 289.75-1.95 290.68-2.15 291.38-2.5L291.38-2.5 291.38-22 287.23-22.4Q287.08-23.4 287.48-24.15L287.48-24.15Q289.28-24.4 291.1-24.75 292.93-25.1 294.48-25.5L294.48-25.5Q294.98-25.45 295.43-25.33 295.88-25.2 296.38-24.95L296.38-24.95ZM293.03-30.05L293.03-30.05Q292.18-30.05 291.48-30.6 290.78-31.15 290.38-31.95 289.98-32.75 289.98-33.45L289.98-33.45Q289.98-34.1 290.53-34.77 291.08-35.45 291.9-35.93 292.73-36.4 293.53-36.4L293.53-36.4Q294.43-36.4 295.13-35.83 295.83-35.25 296.2-34.48 296.58-33.7 296.58-33L296.58-33Q296.58-32.35 296.05-31.65 295.53-30.95 294.7-30.5 293.88-30.05 293.03-30.05ZM302.47-12.5L302.47-12.5Q302.47-16.4 304-19.45 305.52-22.5 308.37-24.25 311.22-26 315.07-26L315.07-26Q318.97-26 321.8-24.25 324.62-22.5 326.15-19.45 327.67-16.4 327.67-12.5L327.67-12.5Q327.67-8.5 326.15-5.45 324.62-2.4 321.8-0.7 318.97 1 315.07 1L315.07 1Q311.22 1 308.37-0.7 305.52-2.4 304-5.45 302.47-8.5 302.47-12.5ZM322.27-11.8L322.27-11.8Q322.27-15.15 321.52-17.88 320.77-20.6 319.17-22.23 317.57-23.85 314.97-23.85L314.97-23.85Q312.32-23.85 310.75-22.25 309.17-20.65 308.52-18 307.87-15.35 307.87-12.15L307.87-12.15Q307.87-9.25 308.62-6.73 309.37-4.2 311-2.68 312.62-1.15 315.17-1.15L315.17-1.15Q317.87-1.15 319.42-2.65 320.97-4.15 321.62-6.6 322.27-9.05 322.27-11.8Z" opacity="1" transform="matrix(1,0,0,1,0,0)" fill="#27005d" class="wordmark-text-0" data-fill-palette-color="primary" id="text-0"></path></svg></g></svg></g></svg></g></svg></g><g><svg viewBox="0 0 62.52051655071361 85.99992207973432" height="85.99992207973432" width="62.52051655071361"><g><svg xmlns="http://www.w3.org/2000/svg" xmlns:xlink="http://www.w3.org/1999/xlink" version="1.1" x="0" y="0" viewBox="19.104999999999997 11.774000000000001 41.803000000000004 57.50200000000001" enable-background="new 0 0 80 80" xml:space="preserve" height="85.99992207973432" width="62.52051655071361" class="icon-icon-0" data-fill-palette-color="accent" id="icon-0"><g fill="#27005d" data-fill-palette-color="accent"><path d="M40.422 25.514c1.929 0 3.497-1.569 3.497-3.498s-1.568-3.498-3.497-3.498c-1.928 0-3.496 1.569-3.496 3.498S38.494 25.514 40.422 25.514zM40.422 20.518c0.825 0 1.497 0.672 1.497 1.498 0 0.826-0.672 1.498-1.497 1.498s-1.496-0.672-1.496-1.498C38.926 21.19 39.597 20.518 40.422 20.518z" fill="#27005d" data-fill-palette-color="accent"></path><path d="M47.999 29.083l0.594-0.918c0.286-0.38 0.543-0.783 0.775-1.2l0.079-0.123h-0.008c0.777-1.438 1.224-3.08 1.224-4.827 0-5.647-4.594-10.241-10.241-10.241-5.646 0-10.24 4.594-10.24 10.241 0 1.747 0.446 3.388 1.223 4.827h-0.007l0.077 0.12c0.233 0.418 0.49 0.822 0.777 1.202l0.423 0.654c-7.916 2.977-13.57 10.61-13.57 19.555 0 11.526 9.376 20.903 20.901 20.903s20.902-9.377 20.902-20.903C60.908 39.68 55.565 32.228 47.999 29.083zM40.422 14.274c4.269 0 7.741 3.473 7.741 7.741 0 1.698-0.556 3.264-1.486 4.542l-0.185 0.285-3.252 5.011-2.818 4.343-2.812-4.342-3.246-5.013h0.018c-0.045-0.056-0.086-0.115-0.129-0.172-0.98-1.297-1.57-2.907-1.57-4.655C32.682 17.747 36.154 14.274 40.422 14.274zM28.552 34.012c1.639-1.306 3.508-2.326 5.529-3.019l6.341 9.808 6.19-9.574c2.092 0.812 4.008 1.978 5.652 3.451-0.468-0.022-0.94-0.016-1.42 0.054-4.05 0.587-6.868 4.361-6.28 8.412 0.088 0.602 0.254 1.172 0.472 1.713l-0.009 0.002c0.156 0.362 0.281 0.74 0.34 1.148 0.369 2.541-1.398 4.909-3.94 5.277-2.543 0.369-4.909-1.398-5.277-3.94-0.133-0.904 0.018-1.782 0.366-2.562l-0.009-0.004c0.331-0.701 0.47-1.503 0.351-2.326-0.325-2.235-2.406-3.79-4.643-3.465-0.209 0.03-0.403 0.089-0.599 0.149l-0.005-0.018c-0.137 0.039-0.271 0.082-0.413 0.103-1.689 0.246-3.262-0.93-3.508-2.618C27.548 35.615 27.901 34.676 28.552 34.012zM31.619 64.734c-5.026-2.588-8.705-7.417-9.718-13.164 0.656 0.537 1.401 0.97 2.221 1.248 4.405 1.459 7.598 5.63 7.598 10.518C31.72 63.811 31.681 64.275 31.619 64.734zM40.006 66.776c-2.098 0-4.105-0.37-5.984-1.019 0.146-0.787 0.233-1.594 0.233-2.422 0-5.946-3.892-11.011-9.219-12.854l0.004-0.011c-1.884-0.59-3.264-2.327-3.275-4.4 0.408-3.241 1.658-6.217 3.531-8.707 0.623 2.834 3.345 4.755 6.261 4.333 0.269-0.039 0.527-0.104 0.781-0.178l0.001 0.002c0.077-0.023 0.154-0.047 0.237-0.059 0.868-0.127 1.681 0.479 1.807 1.35 0.047 0.321-0.008 0.636-0.139 0.91l0.003 0.002c-0.549 1.204-0.776 2.573-0.572 3.979 0.566 3.906 4.206 6.622 8.111 6.056s6.622-4.205 6.057-8.111c-0.091-0.611-0.262-1.186-0.488-1.73l0.007-0.002c-0.146-0.359-0.263-0.732-0.319-1.131-0.39-2.685 1.479-5.186 4.162-5.576 1.729-0.251 3.385 0.442 4.45 1.679-0.015 0-0.028-0.004-0.043-0.004-2.487 0-4.512 2.024-4.512 4.512 0 1.177 0.463 2.239 1.202 3.042l-0.005 0.006c0.752 0.827 1.224 1.915 1.224 3.119 0 0.52-0.105 1.011-0.263 1.478-0.16 0.427-0.242 0.882-0.242 1.364 0 2.044 1.579 3.708 3.58 3.881C53.629 62.479 47.318 66.776 40.006 66.776zM56.931 53.819c-0.78 0-1.415-0.635-1.415-1.415 0-0.184 0.05-0.395 0.115-0.559l0.009 0.002c0.243-0.719 0.381-1.485 0.381-2.285 0-1.868-0.726-3.566-1.901-4.842l-0.006 0.006c-0.315-0.356-0.514-0.818-0.514-1.331 0-1.109 0.902-2.012 2.012-2.012 0.799 0 1.52 0.477 1.847 1.153 0.615 1.834 0.95 3.797 0.95 5.836 0 1.824-0.276 3.585-0.773 5.25C57.428 53.746 57.188 53.819 56.931 53.819z" fill="#27005d" data-fill-palette-color="accent"></path></g></svg></g></svg></g></svg></g><defs></defs></svg><rect width="395.52" height="68.9905949876393" fill="none" stroke="none" visibility="hidden"></rect></g></svg></g></svg>